<?xml version="1.0" standalone="no"?>
<!DOCTYPE svg PUBLIC "-//W3C//DTD SVG 20010904//EN"
 "http://www.w3.org/TR/2001/REC-SVG-20010904/DTD/svg10.dtd">
<svg version="1.0" xmlns="http://www.w3.org/2000/svg"
 width="512.000000pt" height="512.000000pt" viewBox="0 0 512.000000 512.000000"
 preserveAspectRatio="xMidYMid meet">

<g transform="translate(0.000000,512.000000) scale(0.100000,-0.100000)"
fill="#000000" stroke="none">
<path d="M2310 5104 c-350 -42 -615 -120 -911 -270 -235 -119 -452 -277 -644
-469 -338 -338 -577 -768 -685 -1230 -47 -204 -55 -288 -54 -585 0 -263 2
-296 26 -430 131 -720 545 -1335 1160 -1726 495 -314 1102 -446 1698 -368 697
91 1327 470 1742 1049 546 763 628 1762 213 2610 -126 258 -278 468 -490 680
-376 377 -836 617 -1360 711 -121 22 -174 26 -400 29 -143 2 -276 1 -295 -1z
m1500 -1548 c-8 -8 -181 -137 -385 -287 -203 -150 -479 -353 -612 -451 -132
-98 -246 -178 -252 -178 -9 0 -1214 882 -1251 917 -12 11 189 13 1250 13 1085
0 1262 -2 1250 -14z m-1877 -833 l628 -464 342 253 c188 138 452 333 587 433
135 99 269 198 298 219 l52 38 0 -826 0 -826 -1280 0 -1280 0 0 826 c0 657 3
824 13 818 6 -4 295 -216 640 -471z"/>
</g>
</svg>
